<svg width="512" height="512" viewBox="0 0 512 512" xmlns="http://www.w3.org/2000/svg">
  <defs>
    <radialGradient id="bg" cx="0.38" cy="0.30" r="1.0">
      <stop offset="0" stop-color="#332915"></stop>
      <stop offset="0.55" stop-color="#1d1a13"></stop>
      <stop offset="1" stop-color="#100d09"></stop>
    </radialGradient>
    <linearGradient id="gold" x1="0" y1="0" x2="1" y2="1">
      <stop offset="0" stop-color="#f4e3a8"></stop>
      <stop offset="0.5" stop-color="#e8c869"></stop>
      <stop offset="1" stop-color="#bd8a0f"></stop>
    </linearGradient>
    <linearGradient id="cream" x1="0" y1="0" x2="0.6" y2="1">
      <stop offset="0" stop-color="#fffaf0"></stop>
      <stop offset="1" stop-color="#efe0bd"></stop>
    </linearGradient>
  </defs>
  
  <rect width="512" height="512" fill="url(#bg)"></rect>
  
  <g transform="translate(256,256) scale(2.15)">
    <path transform="translate(-50,-50)" d="M50 6 C50 30, 52 32, 70.5 38.5 C88 44.5, 88.5 46, 50 50 C88.5 53.5, 88 55.5, 70.5 61.5 C52 68, 50 70, 50 94 C50 70, 48 68, 29.5 61.5 C12 55.5, 11.5 53.5, 50 50 C11.5 46, 12 44.5, 29.5 38.5 C48 32, 50 30, 50 6 Z" fill="url(#cream)"></path>
  </g>
  
  <g transform="translate(330,178) scale(1.0)">
    <path transform="translate(-28,-28)" d="M28 2 C28 16, 28.4 16.5, 38 19 C47.6 21.5, 47.6 22, 38 24.5 C28.4 27, 28 27.5, 28 41 C28 27.5, 27.6 27, 18 24.5 C8.4 22, 8.4 21.5, 18 19 C27.6 16.5, 28 16, 28 2 Z" fill="url(#gold)"></path>
  </g>
</svg>